name ./resultDataOpenSim/trcMotMarkerGrf/sub09/grf-13-01.mot
datacolumns 19
datarows 17
range 0.53600000 0.60000000
endheader

                time	     ground_force_vx	     ground_force_vy	     ground_force_vz	     ground_force_px	     ground_force_py	     ground_force_pz	   l_ground_force_vx	   l_ground_force_vy	   l_ground_force_vz	   l_ground_force_px	   l_ground_force_py	   l_ground_force_pz	     ground_torque_x	     ground_torque_y	     ground_torque_z	   l_ground_torque_x	   l_ground_torque_y	   l_ground_torque_z	
          0.53600000	         38.47107897	        490.56061436	         -9.92411269	         -0.71317927	          0.00000000	          0.07801368	          0.00000000	          0.00000000	          0.00000000	          0.00000000	          0.00000000	          0.00000000	          0.00000000	          5.66144780	          0.00000000	          0.00000000	          0.00000000	          0.00000000	
          0.54000000	         40.73817599	        498.51479447	        -13.27613959	         -0.71234732	          0.00000000	          0.07829685	          0.00000000	          0.00000000	          0.00000000	          0.00000000	          0.00000000	          0.00000000	          0.00000000	          5.45376016	          0.00000000	          0.00000000	          0.00000000	          0.00000000	
          0.54400000	         43.67065352	        506.80370773	        -16.66700654	         -0.71148255	          0.00000000	          0.07858361	          0.00000000	          0.00000000	          0.00000000	          0.00000000	          0.00000000	          0.00000000	          0.00000000	          5.19443927	          0.00000000	          0.00000000	          0.00000000	          0.00000000	
          0.54800000	         47.25245023	        515.46192238	        -19.69340684	         -0.71058027	          0.00000000	          0.07883772	          0.00000000	          0.00000000	          0.00000000	          0.00000000	          0.00000000	          0.00000000	          0.00000000	          4.93544515	          0.00000000	          0.00000000	          0.00000000	          0.00000000	
          0.55200000	         51.27561493	        524.56157307	        -22.01603011	         -0.70962221	          0.00000000	          0.07901985	          0.00000000	          0.00000000	          0.00000000	          0.00000000	          0.00000000	          0.00000000	          0.00000000	          4.72846147	          0.00000000	          0.00000000	          0.00000000	          0.00000000	
          0.55600000	         55.39836247	        534.24778692	        -23.40228978	         -0.70860323	          0.00000000	          0.07908676	          0.00000000	          0.00000000	          0.00000000	          0.00000000	          0.00000000	          0.00000000	          0.00000000	          4.61658124	          0.00000000	          0.00000000	          0.00000000	          0.00000000	
          0.56000000	         59.24211233	        544.72007071	        -23.75489351	         -0.70755207	          0.00000000	          0.07899443	          0.00000000	          0.00000000	          0.00000000	          0.00000000	          0.00000000	          0.00000000	          0.00000000	          4.62716250	          0.00000000	          0.00000000	          0.00000000	          0.00000000	
          0.56400000	         62.51947788	        556.09689826	        -23.13503833	         -0.70651701	          0.00000000	          0.07872566	          0.00000000	          0.00000000	          0.00000000	          0.00000000	          0.00000000	          0.00000000	          0.00000000	          4.76711222	          0.00000000	          0.00000000	          0.00000000	          0.00000000	
          0.56800000	         65.13934911	        568.27430239	        -21.75488469	         -0.70548877	          0.00000000	          0.07832111	          0.00000000	          0.00000000	          0.00000000	          0.00000000	          0.00000000	          0.00000000	          0.00000000	          5.02177966	          0.00000000	          0.00000000	          0.00000000	          0.00000000	
          0.57200000	         67.22728071	        580.98576426	        -19.91557160	         -0.70436942	          0.00000000	          0.07786051	          0.00000000	          0.00000000	          0.00000000	          0.00000000	          0.00000000	          0.00000000	          0.00000000	          5.35810878	          0.00000000	          0.00000000	          0.00000000	          0.00000000	
          0.57600000	         69.08578542	        594.05151813	        -17.91693789	         -0.70309338	          0.00000000	          0.07740244	          0.00000000	          0.00000000	          0.00000000	          0.00000000	          0.00000000	          0.00000000	          0.00000000	          5.73162909	          0.00000000	          0.00000000	          0.00000000	          0.00000000	
          0.58000000	         71.13947554	        607.54604057	        -15.99567433	         -0.70175284	          0.00000000	          0.07694445	          0.00000000	          0.00000000	          0.00000000	          0.00000000	          0.00000000	          0.00000000	          0.00000000	          6.09572071	          0.00000000	          0.00000000	          0.00000000	          0.00000000	
          0.58400000	         73.83125818	        621.68947071	        -14.31525122	         -0.70055162	          0.00000000	          0.07645256	          0.00000000	          0.00000000	          0.00000000	          0.00000000	          0.00000000	          0.00000000	          0.00000000	          6.41096882	          0.00000000	          0.00000000	          0.00000000	          0.00000000	
          0.58800000	         77.46449454	        636.57762574	        -12.96580812	         -0.69961062	          0.00000000	          0.07592796	          0.00000000	          0.00000000	          0.00000000	          0.00000000	          0.00000000	          0.00000000	          0.00000000	          6.65250099	          0.00000000	          0.00000000	          0.00000000	          0.00000000	
          0.59200000	         82.09282010	        652.02679439	        -11.94853933	         -0.69883519	          0.00000000	          0.07541640	          0.00000000	          0.00000000	          0.00000000	          0.00000000	          0.00000000	          0.00000000	          0.00000000	          6.81368750	          0.00000000	          0.00000000	          0.00000000	          0.00000000	
          0.59600000	         87.53280481	        667.69570190	        -11.18277749	         -0.69802811	          0.00000000	          0.07496929	          0.00000000	          0.00000000	          0.00000000	          0.00000000	          0.00000000	          0.00000000	          0.00000000	          6.90529936	          0.00000000	          0.00000000	          0.00000000	          0.00000000	
          0.60000000	         93.45691340	        683.37357472	        -10.54933783	         -0.69709842	          0.00000000	          0.07459856	          0.00000000	          0.00000000	          0.00000000	          0.00000000	          0.00000000	          0.00000000	          0.00000000	          6.95027297	          0.00000000	          0.00000000	          0.00000000	          0.00000000	
